<svg xmlns="http://www.w3.org/2000/svg" width="390" height="844" viewBox="0 0 390 844" fill="none">
<defs>
<linearGradient id="gradNavy" x1="0" y1="0" x2="1" y2="1">
  <stop offset="0" stop-color="#123A7A"/><stop offset="1" stop-color="#0B2B5C"/></linearGradient>
<linearGradient id="gradBlue" x1="0" y1="0" x2="1" y2="1">
  <stop offset="0" stop-color="#5B9BFF"/><stop offset="1" stop-color="#2E7DF6"/></linearGradient>
<linearGradient id="gradTeal" x1="0" y1="0" x2="1" y2="1">
  <stop offset="0" stop-color="#22D3BB"/><stop offset="1" stop-color="#00BFA5"/></linearGradient>
<linearGradient id="gradAmber" x1="0" y1="0" x2="1" y2="1">
  <stop offset="0" stop-color="#FFC554"/><stop offset="1" stop-color="#F5A623"/></linearGradient>
<linearGradient id="gradGreen" x1="0" y1="0" x2="1" y2="1">
  <stop offset="0" stop-color="#3BDC93"/><stop offset="1" stop-color="#22C07A"/></linearGradient>
<linearGradient id="gradSplash" x1="0" y1="0" x2="0.7" y2="1">
  <stop offset="0" stop-color="#0B2B5C"/><stop offset="0.36" stop-color="#123A7A"/>
  <stop offset="0.72" stop-color="#1B62C4"/><stop offset="1" stop-color="#2E7DF6"/></linearGradient>
<linearGradient id="gradDark" x1="0" y1="0" x2="0.6" y2="1">
  <stop offset="0" stop-color="#0A0D14"/><stop offset="0.5" stop-color="#12161F"/>
  <stop offset="1" stop-color="#1A1A28"/></linearGradient>
<linearGradient id="gradSky" x1="0" y1="0" x2="0" y2="1">
  <stop offset="0" stop-color="#DCEEFF"/><stop offset="0.34" stop-color="#EBF5FF"/>
  <stop offset="1" stop-color="#FFFFFF"/></linearGradient>
<linearGradient id="gradDonut" x1="0" y1="0" x2="1" y2="1">
  <stop offset="0" stop-color="#EF4444"/><stop offset="0.42" stop-color="#F5A623"/>
  <stop offset="0.72" stop-color="#2E7DF6"/><stop offset="1" stop-color="#00BFA5"/></linearGradient>
<filter id="shCard" x="-30%" y="-30%" width="160%" height="180%">
  <feDropShadow dx="0" dy="3" stdDeviation="5" flood-color="#102346" flood-opacity="0.06"/>
  <feDropShadow dx="0" dy="10" stdDeviation="15" flood-color="#102346" flood-opacity="0.05"/></filter>
<filter id="shFloat" x="-30%" y="-30%" width="160%" height="180%">
  <feDropShadow dx="0" dy="6" stdDeviation="10" flood-color="#102346" flood-opacity="0.10"/>
  <feDropShadow dx="0" dy="16" stdDeviation="24" flood-color="#102346" flood-opacity="0.08"/></filter>
<filter id="shBtnNavy" x="-30%" y="-30%" width="160%" height="200%">
  <feDropShadow dx="0" dy="5" stdDeviation="7" flood-color="#0B2B5C" flood-opacity="0.30"/></filter>
<filter id="shBtnBlue" x="-30%" y="-30%" width="160%" height="200%">
  <feDropShadow dx="0" dy="5" stdDeviation="7" flood-color="#2E7DF6" flood-opacity="0.32"/></filter>
<filter id="shBtnAmber" x="-30%" y="-30%" width="160%" height="200%">
  <feDropShadow dx="0" dy="5" stdDeviation="8" flood-color="#F5A623" flood-opacity="0.40"/></filter>
<filter id="shGold" x="-40%" y="-40%" width="180%" height="200%">
  <feDropShadow dx="0" dy="0" stdDeviation="10" flood-color="#F5A623" flood-opacity="0.35"/></filter>
</defs>
<g id="Finding Detail">
<rect id="Background" width="390" height="844" fill="#F7F9FD"/>
<g id="Screen 13 Finding Detail"><g id="Status bar"><text id="Time" x="29" y="44" font-family="Plus Jakarta Sans" font-size="15" font-weight="700" fill="#14213D" text-anchor="start">9:41</text><rect id="Signal bar 1" x="300" y="40" width="3" height="4" rx="0.7" fill="#14213D"/><rect id="Signal bar 2" x="304.5" y="38" width="3" height="6" rx="0.7" fill="#14213D"/><rect id="Signal bar 3" x="309" y="35.5" width="3" height="8.5" rx="0.7" fill="#14213D"/><rect id="Signal bar 4" x="313.5" y="33" width="3" height="11" rx="0.7" fill="#14213D"/><rect id="Battery shell" x="322" y="33" width="20" height="11" rx="3" fill="none" stroke="#14213D" stroke-width="1"/><rect id="Battery fill" x="324" y="35" width="15" height="7" rx="1.8" fill="#14213D"/><rect id="Battery nub" x="343.5" y="36" width="2" height="5" rx="1" fill="#14213D" fill-opacity="0.45"/></g><g id="Home indicator"><rect id="bar" x="126" y="831" width="138" height="5" rx="3" fill="#14213D" fill-opacity="0.3"/></g><g id="Back" transform="translate(26,68) scale(1.0000)"><path d="M15 6 L9 12 L15 18" fill="none" stroke="#2E7DF6" stroke-width="2.4" stroke-linecap="round" stroke-linejoin="round"/></g><rect id="Strong finding pill" x="138" y="62" width="114" height="28" rx="14" fill="#EF4444"/><text id="Strong finding label" x="195" y="81" font-family="Plus Jakarta Sans" font-size="11.5" font-weight="700" fill="#FFFFFF" text-anchor="middle">Strong Finding</text><g id="More" transform="translate(334,66) scale(0.8333)"><path d="M12 22 C6.5 22 2 17.5 2 12 C2 6.5 6.5 2 12 2 C17.5 2 22 6.5 22 12 C22 17.5 17.5 22 12 22 Z M12 16 L12 12 M12 8 L12.01 8" fill="none" stroke="#8492AB" stroke-width="2" stroke-linecap="round" stroke-linejoin="round"/></g><rect id="Card Finding" x="24" y="110" width="342" height="178" rx="20" fill="#FEF0F0" stroke="#F8D4D4" stroke-width="1.5"/><rect id="Finding icon tile" x="42" y="130" width="46" height="46" rx="14" fill="#FFFFFF"/><g id="Finding icon" transform="translate(53,143) scale(1.0000)"><path d="M10.3 3.9 L1.8 18 C1.4 18.7 1.9 19.6 2.7 19.6 L21.3 19.6 C22.1 19.6 22.6 18.7 22.2 18 L13.7 3.9 C13.3 3.2 12.3 3.2 11.9 3.9 Z M12 9 L12 13 M12 17 L12.01 17" fill="none" stroke="#EF4444" stroke-width="2" stroke-linecap="round" stroke-linejoin="round"/></g><text id="Finding title" x="102" y="150" font-family="Plus Jakarta Sans" font-size="16.5" font-weight="800" fill="#14213D" text-anchor="start" letter-spacing="-0.4">Duplicate Charge Detected</text><text id="Finding amount" x="102" y="182" font-family="JetBrains Mono" font-size="28" font-weight="700" fill="#EF4444" text-anchor="start" letter-spacing="-1">$420.00</text><g id="Finding explanation"><text id="Finding explanation line 1" x="42" y="226" font-family="DM Sans" font-size="13.5" font-weight="400" fill="#8F2020" text-anchor="start">This charge appears 2 times on your bill</text><text id="Finding explanation line 2" x="42" y="248" font-family="DM Sans" font-size="13.5" font-weight="400" fill="#8F2020" text-anchor="start">for the same service and date.</text></g><text id="Evidence heading" x="24" y="322" font-family="Plus Jakarta Sans" font-size="12" font-weight="800" fill="#8492AB" text-anchor="start" letter-spacing="1.4">Evidence</text><rect id="Evidence 1" x="24" y="340" width="342" height="74" rx="16" fill="#FFFFFF" filter="url(#shCard)"/><rect id="Evidence rail 1" x="24" y="340" width="4" height="74" rx="2" fill="#00BFA5"/><text id="Evidence 1 line" x="44" y="364" font-family="Plus Jakarta Sans" font-size="13" font-weight="800" fill="#14213D" text-anchor="start">Line Item 3</text><text id="Evidence 1 code" x="44" y="385" font-family="JetBrains Mono" font-size="12" font-weight="500" fill="#4A5A75" text-anchor="start">71046 — Chest X-Ray</text><text id="Evidence 1 date" x="44" y="402" font-family="DM Sans" font-size="11" font-weight="400" fill="#8492AB" text-anchor="start">Mar 15, 2024</text><text id="Evidence 1 amount" x="348" y="385" font-family="JetBrains Mono" font-size="15" font-weight="700" fill="#14213D" text-anchor="end">$420.00</text><rect id="Evidence 2" x="24" y="426" width="342" height="74" rx="16" fill="#FFFFFF" filter="url(#shCard)"/><rect id="Evidence rail 2" x="24" y="426" width="4" height="74" rx="2" fill="#EF4444"/><text id="Evidence 2 line" x="44" y="450" font-family="Plus Jakarta Sans" font-size="13" font-weight="800" fill="#14213D" text-anchor="start">Line Item 7</text><text id="Evidence 2 code" x="44" y="471" font-family="JetBrains Mono" font-size="12" font-weight="500" fill="#4A5A75" text-anchor="start">71046 — Chest X-Ray</text><text id="Evidence 2 date" x="44" y="488" font-family="DM Sans" font-size="11" font-weight="400" fill="#8492AB" text-anchor="start">Mar 15, 2024</text><text id="Evidence 2 amount" x="348" y="471" font-family="JetBrains Mono" font-size="15" font-weight="700" fill="#14213D" text-anchor="end">$420.00</text><rect id="Card Why" x="24" y="518" width="342" height="104" rx="18" fill="#FEF0F0"/><text id="Why title" x="42" y="546" font-family="Plus Jakarta Sans" font-size="14" font-weight="800" fill="#8F2020" text-anchor="start">Why this matters</text><g id="Why body"><text id="Why body line 1" x="42" y="572" font-family="DM Sans" font-size="13" font-weight="400" fill="#7A2323" text-anchor="start">You may be charged twice for the same</text><text id="Why body line 2" x="42" y="593" font-family="DM Sans" font-size="13" font-weight="400" fill="#7A2323" text-anchor="start">service. This is a common billing error.</text></g><g id="Button Generate Dispute Letter"><rect id="Button Generate Dispute Letter bg" x="24" y="644" width="342" height="56" rx="18" fill="url(#gradNavy)" filter="url(#shBtnNavy)"/><g id="Button Generate Dispute Letter icon" transform="translate(65.61000000000001,662.0) scale(0.8333)"><path d="M2 7 C2 5.9 2.9 5 4 5 L20 5 C21.1 5 22 5.9 22 7 L22 17 C22 18.1 21.1 19 20 19 L4 19 C2.9 19 2 18.1 2 17 Z M2 7 L12 14 L22 7" fill="none" stroke="#FFFFFF" stroke-width="2" stroke-linecap="round" stroke-linejoin="round"/></g><text id="Button Generate Dispute Letter label" x="207.0" y="678.0" font-family="Plus Jakarta Sans" font-size="17" font-weight="700" fill="#FFFFFF" text-anchor="middle">Generate Dispute Letter</text></g><g id="Button Mark as Resolved"><rect id="Button Mark as Resolved bg" x="24" y="712" width="342" height="52" rx="18" fill="#FFFFFF" stroke="#E9EEF6" stroke-width="1.5"/><text id="Button Mark as Resolved label" x="195.0" y="744.0" font-family="Plus Jakarta Sans" font-size="17" font-weight="700" fill="#14213D" text-anchor="middle">Mark as Resolved</text></g></g>
</g>
</svg>
