<svg xmlns="http://www.w3.org/2000/svg" width="390" height="844" viewBox="0 0 390 844" fill="none">
<defs>
<linearGradient id="gradNavy" x1="0" y1="0" x2="1" y2="1">
  <stop offset="0" stop-color="#123A7A"/><stop offset="1" stop-color="#0B2B5C"/></linearGradient>
<linearGradient id="gradBlue" x1="0" y1="0" x2="1" y2="1">
  <stop offset="0" stop-color="#5B9BFF"/><stop offset="1" stop-color="#2E7DF6"/></linearGradient>
<linearGradient id="gradTeal" x1="0" y1="0" x2="1" y2="1">
  <stop offset="0" stop-color="#22D3BB"/><stop offset="1" stop-color="#00BFA5"/></linearGradient>
<linearGradient id="gradAmber" x1="0" y1="0" x2="1" y2="1">
  <stop offset="0" stop-color="#FFC554"/><stop offset="1" stop-color="#F5A623"/></linearGradient>
<linearGradient id="gradGreen" x1="0" y1="0" x2="1" y2="1">
  <stop offset="0" stop-color="#3BDC93"/><stop offset="1" stop-color="#22C07A"/></linearGradient>
<linearGradient id="gradSplash" x1="0" y1="0" x2="0.7" y2="1">
  <stop offset="0" stop-color="#0B2B5C"/><stop offset="0.36" stop-color="#123A7A"/>
  <stop offset="0.72" stop-color="#1B62C4"/><stop offset="1" stop-color="#2E7DF6"/></linearGradient>
<linearGradient id="gradDark" x1="0" y1="0" x2="0.6" y2="1">
  <stop offset="0" stop-color="#0A0D14"/><stop offset="0.5" stop-color="#12161F"/>
  <stop offset="1" stop-color="#1A1A28"/></linearGradient>
<linearGradient id="gradSky" x1="0" y1="0" x2="0" y2="1">
  <stop offset="0" stop-color="#DCEEFF"/><stop offset="0.34" stop-color="#EBF5FF"/>
  <stop offset="1" stop-color="#FFFFFF"/></linearGradient>
<linearGradient id="gradDonut" x1="0" y1="0" x2="1" y2="1">
  <stop offset="0" stop-color="#EF4444"/><stop offset="0.42" stop-color="#F5A623"/>
  <stop offset="0.72" stop-color="#2E7DF6"/><stop offset="1" stop-color="#00BFA5"/></linearGradient>
<filter id="shCard" x="-30%" y="-30%" width="160%" height="180%">
  <feDropShadow dx="0" dy="3" stdDeviation="5" flood-color="#102346" flood-opacity="0.06"/>
  <feDropShadow dx="0" dy="10" stdDeviation="15" flood-color="#102346" flood-opacity="0.05"/></filter>
<filter id="shFloat" x="-30%" y="-30%" width="160%" height="180%">
  <feDropShadow dx="0" dy="6" stdDeviation="10" flood-color="#102346" flood-opacity="0.10"/>
  <feDropShadow dx="0" dy="16" stdDeviation="24" flood-color="#102346" flood-opacity="0.08"/></filter>
<filter id="shBtnNavy" x="-30%" y="-30%" width="160%" height="200%">
  <feDropShadow dx="0" dy="5" stdDeviation="7" flood-color="#0B2B5C" flood-opacity="0.30"/></filter>
<filter id="shBtnBlue" x="-30%" y="-30%" width="160%" height="200%">
  <feDropShadow dx="0" dy="5" stdDeviation="7" flood-color="#2E7DF6" flood-opacity="0.32"/></filter>
<filter id="shBtnAmber" x="-30%" y="-30%" width="160%" height="200%">
  <feDropShadow dx="0" dy="5" stdDeviation="8" flood-color="#F5A623" flood-opacity="0.40"/></filter>
<filter id="shGold" x="-40%" y="-40%" width="180%" height="200%">
  <feDropShadow dx="0" dy="0" stdDeviation="10" flood-color="#F5A623" flood-opacity="0.35"/></filter>
</defs>
<g id="No Cases Yet">
<rect id="Background" width="390" height="844" fill="#F7F9FD"/>
<g id="Screen 22 No Cases Yet"><g id="Status bar"><text id="Time" x="29" y="44" font-family="Plus Jakarta Sans" font-size="15" font-weight="700" fill="#14213D" text-anchor="start">9:41</text><rect id="Signal bar 1" x="300" y="40" width="3" height="4" rx="0.7" fill="#14213D"/><rect id="Signal bar 2" x="304.5" y="38" width="3" height="6" rx="0.7" fill="#14213D"/><rect id="Signal bar 3" x="309" y="35.5" width="3" height="8.5" rx="0.7" fill="#14213D"/><rect id="Signal bar 4" x="313.5" y="33" width="3" height="11" rx="0.7" fill="#14213D"/><rect id="Battery shell" x="322" y="33" width="20" height="11" rx="3" fill="none" stroke="#14213D" stroke-width="1"/><rect id="Battery fill" x="324" y="35" width="15" height="7" rx="1.8" fill="#14213D"/><rect id="Battery nub" x="343.5" y="36" width="2" height="5" rx="1" fill="#14213D" fill-opacity="0.45"/></g><g id="Home indicator"><rect id="bar" x="126" y="831" width="138" height="5" rx="3" fill="#14213D" fill-opacity="0.3"/></g><text id="Title" x="24" y="92" font-family="Plus Jakarta Sans" font-size="24" font-weight="800" fill="#14213D" text-anchor="start" letter-spacing="-1">My Cases</text><ellipse id="Add button" cx="344" cy="85" rx="20" ry="20" fill="url(#gradBlue)"/><g id="Add icon" transform="translate(334,75) scale(0.8333)"><path d="M12 5 L12 19 M5 12 L19 12" fill="none" stroke="#FFFFFF" stroke-width="2.6" stroke-linecap="round" stroke-linejoin="round"/></g><ellipse id="Bokeh" cx="195" cy="300" rx="128" ry="128" fill="#E8F1FE" fill-opacity="0.55"/><ellipse id="Folder shadow" cx="195" cy="372" rx="66" ry="9" fill="#0B2B5C" fill-opacity="0.08"/><path id="Folder back" d="M128 250 L166 250 L178 264 L262 264 C268.6 264 274 269.4 274 276 L274 354 C274 360.6 268.6 366 262 366 L128 366 C121.4 366 116 360.6 116 354 L116 262 C116 255.4 121.4 250 128 250 Z" fill="url(#gradBlue)"/><g id="Folder paper" transform="rotate(-6 196 269)"><rect id="paper" x="146" y="232" width="100" height="74" rx="6" fill="#FFFFFF"/></g><g id="Folder paper lines" transform="rotate(-6 196 269)"><rect id="line 1" x="158" y="248" width="48" height="4" rx="2" fill="#C4D2E4"/><rect id="line 2" x="158" y="260" width="64" height="4" rx="2" fill="#DCE5F0"/><rect id="line 3" x="158" y="272" width="38" height="4" rx="2" fill="#DCE5F0"/></g><path id="Folder front" d="M116 288 L274 288 C280.6 288 286 293.4 286 300 L286 354 C286 360.6 280.6 366 274 366 L128 366 C121.4 366 116 360.6 116 354 Z" fill="#4A8BD6"/><g id="Sparkle 1" transform="translate(268,218) scale(1.1667)"><path d="M12 2 L15 8.5 L22 9.5 L17 14.5 L18.2 21.5 L12 18.2 L5.8 21.5 L7 14.5 L2 9.5 L9 8.5 Z" fill="#F5A623"/></g><g id="Sparkle 2" transform="translate(104,206) scale(0.8333)"><path d="M12 2 L15 8.5 L22 9.5 L17 14.5 L18.2 21.5 L12 18.2 L5.8 21.5 L7 14.5 L2 9.5 L9 8.5 Z" fill="#22D3BB"/></g><ellipse id="Dot 1" cx="296" cy="306" rx="6" ry="6" fill="#00BFA5" fill-opacity="0.5"/><ellipse id="Dot 2" cx="96" cy="320" rx="4.5" ry="4.5" fill="#F5A623" fill-opacity="0.5"/><text id="Title empty" x="195" y="448" font-family="Plus Jakarta Sans" font-size="26" font-weight="800" fill="#14213D" text-anchor="middle" letter-spacing="-1">No Cases Yet</text><g id="Body"><text id="Body line 1" x="195" y="486" font-family="DM Sans" font-size="15" font-weight="400" fill="#4A5A75" text-anchor="middle">Scan your first medical bill to get started.</text><text id="Body line 2" x="195" y="510" font-family="DM Sans" font-size="15" font-weight="400" fill="#4A5A75" text-anchor="middle">We&#x27;ll check for errors, compare prices, and</text><text id="Body line 3" x="195" y="534" font-family="DM Sans" font-size="15" font-weight="400" fill="#4A5A75" text-anchor="middle">help you take action.</text></g><g id="Button Scan Your First Bill"><rect id="Button Scan Your First Bill bg" x="24" y="600" width="342" height="56" rx="18" fill="url(#gradTeal)"/><g id="Button Scan Your First Bill icon" transform="translate(80.4,618.0) scale(0.8333)"><path d="M23 19 C23 20.1 22.1 21 21 21 L3 21 C1.9 21 1 20.1 1 19 L1 8 C1 6.9 1.9 6 3 6 L7 6 L9 3 L15 3 L17 6 L21 6 C22.1 6 23 6.9 23 8 Z M16 13 C16 15.2 14.2 17 12 17 C9.8 17 8 15.2 8 13 C8 10.8 9.8 9 12 9 C14.2 9 16 10.8 16 13 Z" fill="none" stroke="#FFFFFF" stroke-width="2" stroke-linecap="round" stroke-linejoin="round"/></g><text id="Button Scan Your First Bill label" x="207.0" y="634.0" font-family="Plus Jakarta Sans" font-size="17" font-weight="700" fill="#FFFFFF" text-anchor="middle">Scan Your First Bill</text></g><g id="Privacy shield" transform="translate(128,678) scale(0.6667)"><path d="M12 2 L20 6 L20 12 C20 17 16.6 20.8 12 22 C7.4 20.8 4 17 4 12 L4 6 Z" fill="none" stroke="#00BFA5" stroke-width="2" stroke-linecap="round" stroke-linejoin="round"/></g><text id="Privacy note" x="152" y="691" font-family="DM Sans" font-size="12" font-weight="400" fill="#8492AB" text-anchor="start">Nothing leaves your phone unredacted</text><g id="Tab bar"><rect id="Tab bar bg" x="0" y="756" width="390" height="88" fill="#FFFFFF"/><rect id="Hairline" x="0" y="756" width="390" height="0.5" fill="#E9EEF6"/><g id="Home icon" transform="translate(27,770) scale(1.0000)"><path d="M3 10 L12 3 L21 10 L21 20 C21 21.1 20.1 22 19 22 L5 22 C3.9 22 3 21.1 3 20 Z" fill="none" stroke="#9BA7BC" stroke-width="1.9" stroke-linecap="round" stroke-linejoin="round"/></g><text id="Home label" x="39" y="808" font-family="Plus Jakarta Sans" font-size="10.5" font-weight="600" fill="#9BA7BC" text-anchor="middle">Home</text><g id="Cases icon" transform="translate(105,770) scale(1.0000)"><path d="M3 7 C3 5.9 3.9 5 5 5 L10 5 L12 7 L19 7 C20.1 7 21 7.9 21 9 L21 18 C21 19.1 20.1 20 19 20 L5 20 C3.9 20 3 19.1 3 18 Z" fill="none" stroke="#2E7DF6" stroke-width="1.9" stroke-linecap="round" stroke-linejoin="round"/></g><text id="Cases label" x="117" y="808" font-family="Plus Jakarta Sans" font-size="10.5" font-weight="700" fill="#2E7DF6" text-anchor="middle">Cases</text><g id="Learn icon" transform="translate(261,770) scale(1.0000)"><path d="M4 4 L10 4 C11.7 4 13 5.3 13 7 L13 20 C13 18.6 11.9 17.5 10.5 17.5 L4 17.5 Z M20 4 L14 4 C12.3 4 11 5.3 11 7 L11 20 C11 18.6 12.1 17.5 13.5 17.5 L20 17.5 Z" fill="none" stroke="#9BA7BC" stroke-width="1.9" stroke-linecap="round" stroke-linejoin="round"/></g><text id="Learn label" x="273" y="808" font-family="Plus Jakarta Sans" font-size="10.5" font-weight="600" fill="#9BA7BC" text-anchor="middle">Learn</text><g id="Settings icon" transform="translate(339,770) scale(1.0000)"><path d="M4 21 L4 14 M4 10 L4 3 M12 21 L12 12 M12 8 L12 3 M20 21 L20 16 M20 12 L20 3 M1 14 L7 14 M9 8 L15 8 M17 16 L23 16" fill="none" stroke="#9BA7BC" stroke-width="1.9" stroke-linecap="round" stroke-linejoin="round"/></g><text id="Settings label" x="351" y="808" font-family="Plus Jakarta Sans" font-size="10.5" font-weight="600" fill="#9BA7BC" text-anchor="middle">Settings</text><ellipse id="Scan ring" cx="195" cy="788" rx="32" ry="32" fill="#FFFFFF"/><ellipse id="Scan button" cx="195" cy="788" rx="27" ry="27" fill="url(#gradBlue)"/><g id="Scan icon" transform="translate(183,776) scale(1.0000)"><path d="M23 19 C23 20.1 22.1 21 21 21 L3 21 C1.9 21 1 20.1 1 19 L1 8 C1 6.9 1.9 6 3 6 L7 6 L9 3 L15 3 L17 6 L21 6 C22.1 6 23 6.9 23 8 Z M16 13 C16 15.2 14.2 17 12 17 C9.8 17 8 15.2 8 13 C8 10.8 9.8 9 12 9 C14.2 9 16 10.8 16 13 Z" fill="none" stroke="#FFFFFF" stroke-width="2" stroke-linecap="round" stroke-linejoin="round"/></g><text id="Scan label" x="195" y="818" font-family="Plus Jakarta Sans" font-size="10" font-weight="600" fill="#9BA7BC" text-anchor="middle">Scan</text></g></g>
</g>
</svg>
